<?xml version="1.0" standalone="no"?>
<!DOCTYPE svg PUBLIC "-//W3C//DTD SVG 20010904//EN"
 "http://www.w3.org/TR/2001/REC-SVG-20010904/DTD/svg10.dtd">
<svg version="1.0" xmlns="http://www.w3.org/2000/svg"
 width="700.000000pt" height="700.000000pt" viewBox="0 0 700.000000 700.000000"
 preserveAspectRatio="xMidYMid meet">
<metadata>
Created by potrace 1.11, written by Peter Selinger 2001-2013
</metadata>
<g transform="translate(0.000000,700.000000) scale(0.100000,-0.100000)"
fill="#000000" stroke="none">
<path d="M3415 6851 c-104 -27 -194 -98 -242 -188 -41 -76 -49 -130 -47 -298
1 -115 5 -150 22 -194 41 -106 101 -169 209 -218 48 -23 72 -27 143 -27 71 0
95 5 143 27 107 49 173 120 213 227 18 51 25 265 12 364 -16 119 -103 232
-218 283 -59 27 -179 39 -235 24z"/>
<path d="M1531 6074 c-203 -71 -307 -278 -240 -477 25 -76 48 -106 166 -225
120 -120 188 -156 311 -159 46 -1 95 3 110 9 87 35 114 52 159 95 102 100 140
256 93 385 -12 35 -32 77 -44 93 -33 48 -200 211 -243 238 -87 55 -222 72
-312 41z"/>
<path d="M5255 6078 c-74 -24 -123 -58 -219 -152 -57 -56 -115 -120 -129 -142
-41 -66 -60 -147 -55 -228 11 -157 100 -267 270 -335 15 -5 67 -9 115 -7 126
4 181 34 322 175 132 133 161 186 168 306 4 64 0 92 -16 139 -42 118 -139 211
-253 242 -61 16 -159 17 -203 2z"/>
<path d="M3378 5545 c-2 -1 -32 -6 -67 -9 -301 -32 -621 -163 -861 -354 -48
-39 -205 -193 -257 -253 -165 -191 -322 -539 -358 -791 -3 -21 -8 -55 -11 -75
-18 -116 -7 -420 19 -510 3 -10 8 -34 11 -53 7 -51 60 -218 102 -324 82 -206
236 -477 409 -718 33 -46 91 -128 130 -184 l71 -101 935 -1 934 0 90 129 c50
71 132 191 183 266 51 76 96 143 100 148 5 6 11 17 15 25 4 8 21 38 37 65 115
189 264 551 286 695 3 19 8 38 9 41 2 3 7 28 10 55 4 27 10 76 14 109 15 108
3 367 -19 455 -5 19 -12 51 -15 70 -11 66 -67 235 -108 325 -131 287 -334 527
-597 706 -75 51 -87 57 -200 114 -149 75 -350 135 -535 161 -48 6 -321 14
-327 9z m310 -839 c0 -50 1 -96 1 -102 1 -6 31 -19 68 -28 74 -19 190 -70 248
-109 47 -32 118 -99 145 -136 l20 -28 -155 -103 -154 -102 -49 41 c-26 23 -52
41 -58 41 -5 0 -21 6 -36 14 -95 50 -356 53 -482 6 -86 -33 -112 -73 -107
-164 4 -85 132 -152 321 -170 30 -3 87 -8 125 -12 39 -3 117 -17 175 -30 271
-63 428 -195 487 -409 3 -11 7 -60 8 -110 10 -292 -182 -499 -510 -551 -22 -3
-42 -8 -44 -10 -2 -2 -4 -46 -3 -99 l0 -95 -79 -1 c-43 0 -108 0 -144 0 -36 0
-85 0 -110 0 l-45 1 2 95 c1 53 -3 99 -8 104 -5 4 -38 15 -74 25 -138 36 -304
138 -373 229 l-27 36 92 63 c51 34 122 81 157 104 l64 43 19 -24 c20 -26 144
-90 193 -101 17 -4 84 -8 150 -9 198 -5 316 31 353 107 27 53 17 126 -22 163
-54 51 -175 86 -346 100 -77 6 -165 18 -217 30 -13 3 -33 7 -45 10 -121 26
-247 93 -329 175 -101 100 -147 209 -147 350 0 204 95 366 268 459 71 38 201
81 245 81 43 0 48 13 47 112 l-2 95 189 0 189 0 0 -91z"/>
<path d="M794 4225 c-113 -25 -212 -107 -262 -215 -22 -47 -26 -69 -26 -150 0
-86 3 -101 32 -161 50 -102 139 -175 252 -203 45 -12 313 -13 360 -2 51 12
136 61 178 103 24 24 58 74 75 111 27 58 31 77 31 152 0 71 -4 95 -27 143 -49
108 -112 168 -218 209 -45 17 -79 21 -200 22 -80 1 -168 -3 -195 -9z"/>
<path d="M5850 4223 c-231 -59 -350 -307 -250 -520 46 -99 125 -167 235 -203
51 -17 303 -20 370 -5 214 49 339 265 276 474 -36 119 -139 220 -256 253 -58
16 -314 17 -375 1z"/>
<path d="M2855 2151 c-8 -15 3 -31 21 -31 9 0 14 7 12 17 -4 20 -24 28 -33 14z"/>
<path d="M2592 2133 c23 -6 27 -27 26 -151 0 -96 -2 -104 -22 -112 -15 -6 -2
-9 44 -9 49 0 59 3 43 9 -22 9 -25 18 -25 75 0 53 1 55 34 55 17 0 39 -7 48
-15 14 -13 16 -10 16 25 0 22 -3 40 -8 40 -4 0 -8 -7 -8 -15 0 -11 -11 -15
-40 -15 -35 0 -40 3 -41 23 0 12 -2 34 -3 50 -2 26 0 27 48 27 32 0 56 -6 68
-17 17 -15 18 -15 18 10 l0 27 -107 -1 c-60 -1 -100 -3 -91 -6z"/>
<path d="M3520 2133 c26 -10 29 -25 28 -135 -1 -112 -3 -121 -28 -131 -8 -3
14 -5 50 -6 49 0 59 3 43 9 -20 8 -23 16 -23 70 l0 60 32 0 c17 0 39 -6 47
-14 14 -13 16 -11 17 25 1 39 -9 52 -20 24 -3 -10 -19 -15 -43 -15 l-38 0 2
42 c1 24 2 46 2 51 1 4 23 7 50 7 39 0 53 -5 64 -20 13 -19 14 -19 15 10 l1
30 -107 -1 c-59 0 -100 -3 -92 -6z"/>
<path d="M4203 2066 c-27 -29 -29 -35 -14 -39 14 -3 17 -16 16 -82 -1 -71 0
-78 21 -87 17 -8 27 -8 39 2 21 18 19 29 -5 23 -21 -6 -21 -9 -23 102 -1 34 3
40 21 43 28 4 29 22 2 22 -19 0 -24 10 -21 38 3 17 0 16 -36 -22z"/>
<path d="M2845 2045 c-17 -8 -23 -14 -14 -14 20 -1 26 -29 23 -100 -1 -32 -7
-57 -15 -62 -9 -6 4 -8 36 -8 28 1 42 3 33 6 -21 5 -20 1 -20 111 1 45 -2 82
-6 82 -4 -1 -20 -7 -37 -15z"/>
<path d="M2955 2045 c-20 -9 -24 -14 -12 -14 20 -1 19 2 21 -80 1 -43 -3 -68
-12 -77 -11 -12 -6 -14 35 -13 26 1 40 3 31 6 -18 5 -21 17 -19 102 0 47 11
61 49 61 24 0 24 1 27 -85 2 -45 -1 -63 -13 -72 -13 -11 -8 -13 34 -13 38 1
45 3 32 11 -15 8 -18 24 -18 84 0 54 -4 78 -16 89 -19 20 -44 20 -70 1 -25
-19 -35 -19 -28 0 7 18 -2 18 -41 0z"/>
<path d="M3785 2026 c-26 -28 -32 -42 -30 -73 5 -92 83 -132 145 -75 70 64 30
182 -62 182 -11 0 -35 -15 -53 -34z m90 -6 c25 -28 31 -95 11 -125 -32 -49
-80 -21 -92 53 -12 73 39 119 81 72z"/>
<path d="M3980 2048 c-21 -9 -22 -12 -7 -15 14 -4 17 -16 17 -78 0 -60 -3 -76
-17 -84 -14 -8 -7 -10 31 -11 42 0 47 2 34 13 -12 9 -15 28 -14 77 1 61 3 65
29 74 39 14 50 -2 50 -75 0 -49 -4 -65 -18 -75 -17 -13 -13 -14 31 -14 31 0
44 3 35 9 -9 6 -14 34 -16 85 -3 100 -30 130 -81 91 -25 -19 -34 -19 -34 0 0
17 -6 18 -40 3z"/>
<path d="M3270 1960 c0 -17 7 -20 53 -20 46 0 53 3 53 20 0 17 -7 20 -53 20
-46 0 -53 -3 -53 -20z"/>
<path d="M2565 1790 c-9 -14 2 -266 12 -285 6 -11 12 -24 13 -30 13 -63 108
-166 187 -202 58 -27 78 -32 146 -37 27 -2 49 -5 50 -7 1 -2 12 -24 23 -49
107 -227 370 -359 616 -309 71 14 204 81 253 127 57 52 107 118 140 183 26 51
32 56 59 54 131 -6 276 89 339 222 30 64 31 72 31 203 l1 135 -933 1 c-513 0
-935 -2 -937 -6z"/>
</g>
</svg>
